# Media Information
<pre>
General
Unique ID                                : 234185960241859302485902348502394850234
Complete name                            : X2.2003.1080p.BluRay.REMUX.AVC.DTS-HD.MA.5.1-GIFT.mkv
Format                                   : Matroska
Format version                           : Version 4
File size                                : 32.4 GiB
Duration                                 : 2 h 13 min
Overall bit rate mode                    : Variable
Overall bit rate                         : 34.7 Mb/s
Movie name                               : X2: X-Men United
Encoded date                             : UTC 2023-10-12 14:22:10
Writing application                      : mkvmerge v78.0 ('Over The Rainbow') 64-bit
Writing library                          : libebml v1.4.4 + libmatroska v1.7.1

Video
ID                                       : 1
Format                                   : AVC
Format/Info                              : Advanced Video Codec
Format profile                           : High@L4.1
Format settings                          : CABAC / 4 Ref Frames
Format settings, CABAC                   : Yes
Format settings, Reference frames        : 4 frames
Codec ID                                 : V_MPEG4/ISO/AVC
Duration                                 : 2 h 13 min
Bit rate mode                            : Variable
Bit rate                                 : 28.5 Mb/s
Maximum bit rate                         : 38.0 Mb/s
Width                                    : 1 920 pixels
Height                                   : 1 080 pixels
Display aspect ratio                     : 16:9
Frame rate mode                          : Constant
Frame rate                               : 23.976 (24000/1001) FPS
Color space                              : YUV
Chroma subsampling                       : 4:2:0
Bit depth                                : 8 bits
Scan type                                : Progressive
Bits/(Pixel*Frame)                       : 0.573
Stream size                              : 26.6 GiB (82%)
Language                                 : English
Default                                  : Yes
Forced                                   : No
Color range                              : Limited
Color primaries                          : BT.709
Transfer characteristics                 : BT.709
Matrix coefficients                      : BT.709

Audio
ID                                       : 2
Format                                   : DTS ES XLL
Format/Info                              : Digital Theater Systems
Commercial name                          : DTS-HD Master Audio
Codec ID                                 : A_DTS
Duration                                 : 2 h 13 min
Bit rate mode                            : Variable
Bit rate                                 : 4 154 kb/s
Channel(s)                               : 6 channels
Channel layout                           : C L R Ls Rs LFE
Sampling rate                            : 48.0 kHz
Frame rate                               : 93.750 FPS (512 SPF)
Bit depth                                : 24 bits
Compression mode                         : Lossless
Stream size                              : 3.88 GiB (12%)
Language                                 : English
Title                                    : DTS-HD MA 5.1
Default                                  : Yes
Forced                                   : No

Text #1
ID                                       : 3
Format                                   : PGS
Codec ID                                 : S_HDMV/PGS
Codec ID/Info                            : Picture based subtitle format used on BDs
Duration                                 : 2 h 08 min
Bit rate                                 : 32.4 kb/s
Count of elements                        : 3240
Stream size                              : 30.2 MiB (0%)
Language                                 : English (SDH)
Title                                    : English SDH
Default                                  : No
Forced                                   : No

Text #2
ID                                       : 4
Format                                   : PGS
Codec ID                                 : S_HDMV/PGS
Codec ID/Info                            : Picture based subtitle format used on BDs
Duration                                 : 2 h 10 min
Bit rate                                 : 28.1 kb/s
Count of elements                        : 2810
Stream size                              : 26.1 MiB (0%)
Language                                 : Spanish
Title                                    : Spanish (Latin American)
Default                                  : No
Forced                                   : No
</pre>